<?xml version="1.0" encoding="UTF-8"?>
<svg xmlns="http://www.w3.org/2000/svg" xmlns:xlink="http://www.w3.org/1999/xlink" viewBox="0 0 50 50" width="50px" height="50px">
<g id="surface9249662">
<path style="fill-rule:nonzero;fill:rgb(0%,0%,0%);fill-opacity:1;stroke-width:1;stroke-linecap:butt;stroke-linejoin:round;stroke:rgb(80.000001%,80.000001%,80.000001%);stroke-opacity:1;stroke-miterlimit:10;" d="M 88.12242 4.347585 L 120.404865 29.532759 L 120.404865 20.637512 L 141.034266 20.637512 L 141.034266 45.646943 L 167.233335 66.087084 C 168.206675 66.844126 168.693345 68.060801 168.531121 69.277476 C 168.355379 70.494151 167.557781 71.535084 166.408699 71.994717 C 165.273136 72.45435 163.975349 72.265089 163.002009 71.508047 L 158.243458 67.803948 L 158.243458 158.243458 C 158.243458 160.136064 156.702336 161.677185 154.796212 161.677185 L 107.183663 161.677185 C 106.81866 161.744778 106.440139 161.744778 106.061618 161.677185 L 65.897823 161.677185 C 65.532821 161.744778 65.1543 161.744778 64.775779 161.677185 L 17.203785 161.677185 C 15.297661 161.677185 13.756539 160.136064 13.756539 158.243458 L 13.756539 67.803948 L 8.997988 71.508047 C 7.497422 72.684166 5.334444 72.413794 4.171844 70.913228 C 2.995724 69.412662 3.266097 67.249684 4.766662 66.087084 L 83.877577 4.347585 C 84.458877 3.901471 85.148326 3.658136 85.878331 3.631099 C 86.675929 3.590543 87.473527 3.847397 88.12242 4.347585 Z M 20.637512 62.437059 L 20.637512 154.796212 L 61.923352 154.796212 L 61.923352 89.433726 L 110.076645 89.433726 L 110.076645 154.796212 L 151.362485 154.796212 L 151.362485 62.437059 L 85.999999 11.431338 Z M 127.285838 34.899647 L 134.153292 40.280055 L 134.153292 27.518485 L 127.285838 27.518485 Z M 68.804325 154.796212 L 103.195672 154.796212 L 103.195672 96.314699 L 68.804325 96.314699 Z M 68.804325 154.796212 " transform="matrix(0.288953,0,0,0.288953,0.15,0.15)"/>
<path style=" stroke:none;fill-rule:nonzero;fill:rgb(20%,20%,20%);fill-opacity:1;" d="M 24.964844 1.199219 C 24.753906 1.207031 24.554688 1.277344 24.386719 1.40625 L 1.527344 19.246094 C 1.09375 19.582031 1.015625 20.207031 1.355469 20.640625 C 1.691406 21.074219 2.316406 21.152344 2.75 20.8125 L 4.125 19.742188 L 4.125 45.875 C 4.125 46.421875 4.570312 46.867188 5.121094 46.867188 L 18.867188 46.867188 C 18.976562 46.886719 19.085938 46.886719 19.191406 46.867188 L 30.796875 46.867188 C 30.90625 46.886719 31.015625 46.886719 31.121094 46.867188 L 44.878906 46.867188 C 45.429688 46.867188 45.875 46.421875 45.875 45.875 L 45.875 19.742188 L 47.25 20.8125 C 47.53125 21.03125 47.90625 21.085938 48.234375 20.953125 C 48.566406 20.820312 48.796875 20.519531 48.847656 20.167969 C 48.894531 19.816406 48.753906 19.464844 48.472656 19.246094 L 40.902344 13.339844 L 40.902344 6.113281 L 34.941406 6.113281 L 34.941406 8.683594 L 25.613281 1.40625 C 25.425781 1.261719 25.195312 1.1875 24.964844 1.199219 Z M 25 3.453125 L 43.886719 18.191406 L 43.886719 44.878906 L 31.957031 44.878906 L 31.957031 25.992188 L 18.042969 25.992188 L 18.042969 44.878906 L 6.113281 44.878906 L 6.113281 18.191406 Z M 36.929688 8.101562 L 38.914062 8.101562 L 38.914062 11.789062 L 36.929688 10.234375 Z M 20.03125 27.980469 L 29.96875 27.980469 L 29.96875 44.878906 L 20.03125 44.878906 Z M 20.03125 27.980469 "/>
</g>
</svg>
