<svg width="22" height="22" viewBox="0 0 22 22" fill="none" xmlns="http://www.w3.org/2000/svg">
<path fill-rule="evenodd" clip-rule="evenodd" d="M0.364258 11.0001C0.364258 10.3474 0.893376 9.81824 1.54608 9.81824H20.4552C21.1079 9.81824 21.637 10.3474 21.637 11.0001C21.637 11.6528 21.1079 12.1819 20.4552 12.1819H1.54608C0.893376 12.1819 0.364258 11.6528 0.364258 11.0001Z" fill="#556BF4"/>
<path fill-rule="evenodd" clip-rule="evenodd" d="M11.0008 0.363647C11.6535 0.363647 12.1826 0.892765 12.1826 1.54547L12.1826 20.4546C12.1826 21.1073 11.6535 21.6364 11.0008 21.6364C10.3481 21.6364 9.81898 21.1073 9.81898 20.4546L9.81898 1.54547C9.81898 0.892765 10.3481 0.363647 11.0008 0.363647Z" fill="#556BF4"/>
</svg>
